HIERARCHY
ROOT Hips
{
	OFFSET 0.00000 0.00000 0.00000
	CHANNELS 6 Xposition Yposition Zposition Zrotation Yrotation Xrotation 
	JOINT LHipJoint
	{
		OFFSET 0 0 0
		CHANNELS 3 Zrotation Yrotation Xrotation
		JOINT LeftUpLeg
		{
			OFFSET 1.58895 -1.83665 0.71753
			CHANNELS 3 Zrotation Yrotation Xrotation
			JOINT LeftLeg
			{
				OFFSET 2.50528 -6.88321 0.00000
				CHANNELS 3 Zrotation Yrotation Xrotation
				JOINT LeftFoot
				{
					OFFSET 2.63244 -7.23257 0.00000
					CHANNELS 3 Zrotation Yrotation Xrotation
					JOINT LeftToeBase
					{
						OFFSET 0.23691 -0.65090 1.72750
						CHANNELS 3 Zrotation Yrotation Xrotation
						End Site
						{
							OFFSET 0.00000 -0.00000 0.92561
						}
					}
				}
			}
		}
	}
	JOINT RHipJoint
	{
		OFFSET 0 0 0
		CHANNELS 3 Zrotation Yrotation Xrotation
		JOINT RightUpLeg
		{
			OFFSET -1.51435 -1.83665 0.71753
			CHANNELS 3 Zrotation Yrotation Xrotation
			JOINT RightLeg
			{
				OFFSET -2.54551 -6.99375 0.00000
				CHANNELS 3 Zrotation Yrotation Xrotation
				JOINT RightFoot
				{
					OFFSET -2.66027 -7.30903 0.00000
					CHANNELS 3 Zrotation Yrotation Xrotation
					JOINT RightToeBase
					{
						OFFSET -0.22981 -0.63138 2.03959
						CHANNELS 3 Zrotation Yrotation Xrotation
						End Site
						{
							OFFSET -0.00000 -0.00000 1.07060
						}
					}
				}
			}
		}
	}
	JOINT LowerBack
	{
		OFFSET 0 0 0
		CHANNELS 3 Zrotation Yrotation Xrotation
		JOINT Spine
		{
			OFFSET -0.02651 1.86275 -0.11152
			CHANNELS 3 Zrotation Yrotation Xrotation
			JOINT Spine1
			{
				OFFSET 0.01019 1.86224 0.04087
				CHANNELS 3 Zrotation Yrotation Xrotation
				JOINT Neck
				{
					OFFSET 0 0 0
					CHANNELS 3 Zrotation Yrotation Xrotation
					JOINT Neck1
					{
						OFFSET -0.01926 1.80512 0.08867
						CHANNELS 3 Zrotation Yrotation Xrotation
						JOINT Head
						{
							OFFSET 0.05516 1.76451 -0.38475
							CHANNELS 3 Zrotation Yrotation Xrotation
							End Site
							{
								OFFSET 0.01592 1.82587 -0.14001
							}
						}
					}
				}
				JOINT LeftShoulder
				{
					OFFSET 0 0 0
					CHANNELS 3 Zrotation Yrotation Xrotation
					JOINT LeftArm
					{
						OFFSET 3.47116 1.51376 0.14491
						CHANNELS 3 Zrotation Yrotation Xrotation
						JOINT LeftForeArm
						{
							OFFSET 4.78095 -0.00000 0.00000
							CHANNELS 3 Zrotation Yrotation Xrotation
							JOINT LeftHand
							{
								OFFSET 3.58615 -0.00000 -0.00000
								CHANNELS 3 Zrotation Yrotation Xrotation
								JOINT LeftFingerBase
								{
									OFFSET 0 0 0
									CHANNELS 3 Zrotation Yrotation Xrotation
									JOINT LeftHandIndex1
									{
										OFFSET 0.65981 -0.00000 0.00000
										CHANNELS 3 Zrotation Yrotation Xrotation
										End Site
										{
											OFFSET 0.53196 -0.00000 0.00000
										}
									}
								}
								JOINT LThumb
								{
									OFFSET 0 0 0
									CHANNELS 3 Zrotation Yrotation Xrotation
									End Site
									{
										OFFSET 0.54008 -0.00000 0.54008
									}
								}
							}
						}
					}
				}
				JOINT RightShoulder
				{
					OFFSET 0 0 0
					CHANNELS 3 Zrotation Yrotation Xrotation
					JOINT RightArm
					{
						OFFSET -3.31725 1.61216 0.35156
						CHANNELS 3 Zrotation Yrotation Xrotation
						JOINT RightForeArm
						{
							OFFSET -4.48913 -0.00000 0.00000
							CHANNELS 3 Zrotation Yrotation Xrotation
							JOINT RightHand
							{
								OFFSET -3.70510 -0.00000 0.00000
								CHANNELS 3 Zrotation Yrotation Xrotation
								JOINT RightFingerBase
								{
									OFFSET 0 0 0
									CHANNELS 3 Zrotation Yrotation Xrotation
									JOINT RightHandIndex1
									{
										OFFSET -0.44914 -0.00000 0.00000
										CHANNELS 3 Zrotation Yrotation Xrotation
										End Site
										{
											OFFSET -0.36211 -0.00000 0.00000
										}
									}
								}
								JOINT RThumb
								{
									OFFSET 0 0 0
									CHANNELS 3 Zrotation Yrotation Xrotation
									End Site
									{
										OFFSET -0.36763 -0.00000 0.36763
									}
								}
							}
						}
					}
				}
			}
		}
	}
}
MOTION
Frames: 14
Frame Time: .0083333
-0.7613 18.7022 6.0896 0 0 0 0 0 0 -21 0 0 0 0 0 0 0 0 0 0 0 0 0 0 21 0 0 0 0 0 0 0 0 0 0 0 0 0 0 0 0 0 0 0 0 0 0 -16 0 0 21 0 0 11 0 0 0 -8 0 0 0 0 0 0 0 0 0 0 0 0 0 0 0 0 0 0 0 0 8 0 0 0 0 0 0 0 0 0 0 0 0 0 0 0 0 0
-0.7613 18.7022 6.0896 -1.9082 0.1289 1.8138 0.0000 0.0000 0.0000 -14.0572 -14.4520 -0.9498 1.4756 7.6756 21.7330 1.6583 7.3358 -27.9228 8.6499 -16.5771 -54.8714 0.0000 0.0000 0.0000 16.4974 -0.1891 8.5489 0.0000 0.0000 -0.0000 -1.1780 -4.3050 -22.4709 -0.0083 0.5872 -1.6136 -0.6198 0.3331 1.7184 0.6734 0.4428 -1.6910 1.0207 0.2401 -2.7083 -2.4995 -2.4708 -11.5698 5.8165 -4.0516 17.8280 1.9174 -1.5711 7.5611 0.0000 0.0000 0.0000 -92.2261 12.2736 22.3765 20.8973 -31.7083 -5.9959 -0.0000 -0.0000 7.4522 2.9647 -25.6391 -1.2838 -7.1250 0.0000 -0.0000 -16.1245 5.1421 15.2444 0.0000 0.0000 0.0000 89.5208 -18.5619 22.2104 -24.3621 35.5448 -7.9161 0.0000 0.0000 15.1212 -9.3841 -27.6711 4.3887 7.1250 -0.0000 -0.0000 22.7998 -56.4768 -6.6567
-0.7870 18.7155 6.0623 -1.9218 0.4567 2.5014 0.0000 0.0000 0.0000 -13.2978 -12.9875 -2.6100 1.4684 7.6579 21.6797 1.5315 6.0546 -26.2443 8.7668 -16.6553 -55.2802 0.0000 0.0000 0.0000 16.6647 -0.2884 7.7153 0.0000 0.0000 -0.0000 -1.1754 -4.3153 -22.4547 -0.0056 0.4852 -1.3333 -0.9731 0.1952 1.4605 0.7768 0.2530 -1.9947 1.3333 0.1562 -2.8739 -2.4849 -2.4395 -11.4577 5.7021 -3.9880 17.7934 1.8846 -1.5528 7.5240 0.0000 0.0000 0.0000 -92.2270 12.2803 22.3772 20.8090 -31.6047 -5.9495 -0.0000 -0.0000 7.4636 2.8923 -25.5831 -1.2498 -7.1250 0.0000 -0.0000 -16.1679 5.2013 15.2702 0.0000 0.0000 0.0000 89.5182 -18.5704 22.3091 -24.4456 35.6320 -7.9647 0.0000 0.0000 14.9886 -9.9517 -27.7376 4.6685 7.1250 -0.0000 -0.0000 22.2784 -56.6535 -6.5904
-0.7872 18.7152 6.0601 -1.9310 0.4741 2.4975 0.0000 0.0000 0.0000 -13.2646 -12.9226 -2.6385 1.4650 7.6492 21.6535 1.5281 5.9583 -26.1624 8.7482 -16.6429 -55.2152 0.0000 0.0000 0.0000 16.6713 -0.3071 7.7186 0.0000 -0.0000 0.0000 -1.1808 -4.2429 -22.4598 -0.0044 0.4284 -1.1772 -0.9614 0.1654 1.4709 0.7940 0.2139 -2.0112 1.3459 0.1369 -2.8955 -2.4633 -2.4092 -11.3451 5.5949 -3.9283 17.7508 1.8526 -1.5353 7.4844 -0.0000 -0.0000 0.0000 -92.2520 12.2778 22.3039 20.7335 -31.5159 -5.9100 -0.0000 -0.0000 7.5316 2.8221 -25.5366 -1.2174 -7.1250 0.0000 -0.0000 -16.2099 5.2512 15.2974 -0.0000 -0.0000 0.0000 89.5634 -18.6020 22.3078 -24.5300 35.7198 -8.0139 0.0000 0.0000 14.9655 -9.1954 -27.6236 4.2925 7.1250 -0.0000 -0.0000 22.9555 -56.3950 -6.6593
-0.7879 18.7145 6.0582 -1.9306 0.4819 2.4719 0.0000 0.0000 0.0000 -13.2525 -12.8850 -2.6217 1.4611 7.6396 21.6247 1.5352 5.8329 -26.1406 8.6983 -16.6096 -55.0407 0.0000 0.0000 0.0000 16.6715 -0.3225 7.7423 0.0000 -0.0000 0.0000 -1.1765 -4.2431 -22.4242 -0.0062 0.5098 -1.4007 -0.9502 0.1443 1.4741 0.7966 0.1862 -1.9963 1.3434 0.1226 -2.8811 -2.4078 -2.3836 -11.3204 5.4742 -3.8816 17.7732 1.8088 -1.5204 7.4817 0.0000 0.0000 0.0000 -92.2557 12.2333 22.2329 20.6659 -31.4363 -5.8747 -0.0000 -0.0000 7.6639 2.7454 -25.5631 -1.1854 -7.1250 0.0000 -0.0000 -16.2548 5.2317 15.3499 0.0000 0.0000 0.0000 89.6397 -18.5701 22.2850 -24.5848 35.7766 -8.0459 0.0000 0.0000 14.9696 -8.7956 -27.4373 4.0780 7.1250 -0.0000 -0.0000 23.2260 -56.1440 -6.5999
-0.7886 18.7133 6.0566 -1.9299 0.4708 2.4428 0.0000 0.0000 0.0000 -13.2485 -12.8563 -2.5930 1.4586 7.6332 21.6053 1.5425 5.7441 -26.1421 8.6731 -16.5927 -54.9526 0.0000 0.0000 0.0000 16.6739 -0.3175 7.7652 0.0000 -0.0000 0.0000 -1.1709 -4.2727 -22.3929 -0.0090 0.6118 -1.6813 -0.9205 0.1336 1.4559 0.7942 0.1727 -1.9688 1.3249 0.1148 -2.8420 -2.3829 -2.3626 -11.3096 5.3924 -3.8434 17.8124 1.7819 -1.5075 7.4888 0.0000 0.0000 0.0000 -92.2451 12.1580 22.2101 20.5983 -31.3565 -5.8395 -0.0000 -0.0000 7.7857 2.7424 -25.5937 -1.1854 -7.1250 0.0000 -0.0000 -16.2562 5.2025 15.3607 0.0000 0.0000 0.0000 89.6527 -18.5167 22.3926 -24.6175 35.8105 -8.0650 0.0000 0.0000 14.9012 -9.0658 -27.4087 4.2009 7.1250 -0.0000 -0.0000 22.9389 -56.1720 -6.5279
-0.7889 18.7121 6.0548 -1.9078 0.4677 2.4184 0.0000 0.0000 0.0000 -13.2777 -12.8496 -2.5689 1.4568 7.6288 21.5922 1.5336 5.7925 -26.1051 8.7089 -16.6167 -55.0778 0.0000 0.0000 0.0000 16.6469 -0.3209 7.7858 0.0000 0.0000 -0.0000 -1.1762 -4.2350 -22.4165 -0.0104 0.6595 -1.8123 -0.9169 0.1206 1.4436 0.8001 0.1556 -1.9545 1.3296 0.1061 -2.8198 -2.4135 -2.3518 -11.2567 5.3467 -3.8157 17.8387 1.7753 -1.5010 7.4863 -0.0000 -0.0000 0.0000 -92.2715 12.1038 22.1770 20.5586 -31.3094 -5.8188 -0.0000 -0.0000 7.8979 2.7974 -25.5517 -1.2074 -7.1250 0.0000 -0.0000 -16.2243 5.2386 15.3162 -0.0000 -0.0000 0.0000 89.6163 -18.5327 22.5003 -24.6833 35.8785 -8.1035 0.0000 0.0000 14.7850 -8.6909 -27.5761 4.0476 7.1250 -0.0000 -0.0000 23.4238 -56.2498 -6.7219
-0.7892 18.7118 6.0530 -1.8802 0.4770 2.3980 0.0000 0.0000 0.0000 -13.3176 -12.8934 -2.5341 1.4568 7.6288 21.5922 1.5272 5.8490 -26.0919 8.7328 -16.6327 -55.1615 0.0000 0.0000 0.0000 16.6144 -0.3378 7.8064 0.0000 0.0000 -0.0000 -1.1835 -4.2033 -22.4613 -0.0125 0.7223 -1.9850 -0.9339 0.1107 1.4471 0.8022 0.1420 -1.9517 1.3418 0.0996 -2.8185 -2.4351 -2.3506 -11.2146 5.3170 -3.8070 17.8892 1.7707 -1.5011 7.4947 0.0000 0.0000 0.0000 -92.2858 12.0922 22.1922 20.5628 -31.3144 -5.8210 -0.0000 -0.0000 7.9129 2.8571 -25.5488 -1.2330 -7.1250 0.0000 -0.0000 -16.1891 5.2370 15.2806 0.0000 0.0000 0.0000 89.6086 -18.6068 22.5268 -24.7722 35.9702 -8.1557 0.0000 0.0000 14.6742 -7.3499 -28.0412 3.4701 7.1250 -0.0000 -0.0000 25.0720 -56.4007 -7.3308
-0.7895 18.7124 6.0521 -1.9192 0.4526 2.3786 0.0000 0.0000 0.0000 -13.2873 -12.9473 -2.4763 1.4572 7.6297 21.5949 1.5365 5.8204 -26.1429 8.7234 -16.6264 -55.1285 0.0000 0.0000 0.0000 16.6615 -0.3205 7.8359 0.0000 -0.0000 0.0000 -1.1852 -4.2221 -22.4860 -0.0160 0.8163 -2.2434 -0.8820 0.1189 1.4475 0.8034 0.1544 -1.9574 1.3134 0.1048 -2.8248 -2.4511 -2.3423 -11.1263 5.3568 -3.8026 17.9125 1.7877 -1.4975 7.4873 -0.0000 -0.0000 0.0000 -92.2507 12.1211 22.2851 20.5951 -31.3527 -5.8378 -0.0000 -0.0000 7.8450 2.9221 -25.6854 -1.2674 -7.1250 0.0000 -0.0000 -16.1492 5.1010 15.2828 -0.0000 -0.0000 0.0000 89.6277 -18.6846 22.5701 -24.8228 36.0223 -8.1855 0.0000 0.0000 14.5949 -6.4814 -28.4243 3.0954 7.1250 -0.0000 -0.0000 26.2027 -56.5673 -7.8021
-0.7896 18.7110 6.0520 -1.9969 0.3820 2.3289 0.0000 0.0000 0.0000 -13.2310 -12.9868 -2.3763 1.4577 7.6310 21.5989 1.5450 5.8528 -26.2232 8.7204 -16.6244 -55.1180 0.0000 0.0000 0.0000 16.7497 -0.2648 7.9037 0.0000 0.0000 -0.0000 -1.1887 -4.2077 -22.5068 -0.0188 0.8847 -2.4317 -0.8070 0.1291 1.4750 0.8223 0.1704 -1.9650 1.2901 0.1116 -2.8485 -2.4602 -2.3166 -10.9480 5.4034 -3.7740 17.8617 1.8086 -1.4839 7.4386 0.0000 0.0000 0.0000 -92.3017 12.1523 22.1425 20.6399 -31.4056 -5.8612 -0.0000 -0.0000 7.9688 2.9267 -25.8092 -1.2751 -7.1250 0.0000 -0.0000 -16.1452 4.9817 15.3165 0.0000 0.0000 0.0000 89.6205 -18.7445 22.6534 -24.8123 36.0115 -8.1793 0.0000 0.0000 14.5722 -8.2127 -28.2684 3.9103 7.1250 -0.0000 -0.0000 24.3807 -56.7813 -7.3401
-0.7904 18.7089 6.0520 -2.0184 0.2774 2.2677 0.0000 0.0000 0.0000 -13.2371 -12.9781 -2.2803 1.4591 7.6345 21.6094 1.5500 5.9264 -26.3025 8.7097 -16.6173 -55.0808 0.0000 0.0000 0.0000 16.7739 -0.1804 7.9881 0.0000 0.0000 -0.0000 -1.1896 -4.1977 -22.5088 -0.0225 0.9678 -2.6603 -0.8270 0.1424 1.5234 0.8473 0.1882 -1.9714 1.3263 0.1214 -2.8831 -2.4369 -2.2830 -10.7483 5.3941 -3.7271 17.7540 1.8075 -1.4657 7.3651 -0.0000 0.0000 0.0000 -92.4514 12.1509 21.7906 20.6911 -31.4660 -5.8879 -0.0000 -0.0000 8.2350 2.8256 -25.8015 -1.2307 -7.1250 0.0000 -0.0000 -16.2049 4.9969 15.3733 -0.0000 0.0000 0.0000 89.6043 -18.7879 22.6622 -24.7584 35.9560 -8.1476 0.0000 0.0000 14.6494 -8.3401 -28.5235 4.0044 7.1250 -0.0000 -0.0000 24.4374 -57.0382 -7.5133
-0.7910 18.7087 6.0516 -2.0081 0.1698 2.2303 0.0000 0.0000 0.0000 -13.2683 -12.9396 -2.2247 1.4608 7.6388 21.6223 1.5571 5.9825 -26.3870 8.6890 -16.6034 -55.0082 0.0000 0.0000 0.0000 16.7652 -0.0868 8.0482 0.0000 0.0000 -0.0000 -1.1825 -4.2305 -22.4675 -0.0269 1.0583 -2.9094 -0.8685 0.1697 1.5662 0.8566 0.2234 -1.9782 1.3576 0.1402 -2.9154 -2.4224 -2.2577 -10.5886 5.4151 -3.6947 17.6336 1.8159 -1.4517 7.2962 -0.0000 0.0000 0.0000 -92.5050 12.1540 21.7316 20.7438 -31.5281 -5.9154 -0.0000 -0.0000 8.2367 2.7436 -25.7629 -1.1932 -7.1250 0.0000 -0.0000 -16.2536 5.0401 15.4099 -0.0000 0.0000 0.0000 89.6329 -18.8020 22.5650 -24.6907 35.8861 -8.1079 0.0000 0.0000 14.7617 -6.1915 -28.8877 3.0000 7.1250 -0.0000 -0.0000 26.8327 -56.9193 -8.2430
-0.7917 18.7084 6.0503 -2.0412 0.0929 2.1920 0.0000 0.0000 0.0000 -13.2412 -12.8678 -2.1958 1.4624 7.6428 21.6342 1.5616 6.0091 -26.4352 8.6703 -16.5908 -54.9427 0.0000 0.0000 0.0000 16.8075 -0.0210 8.0990 0.0000 0.0000 -0.0000 -1.1792 -4.2509 -22.4513 -0.0299 1.1163 -3.0690 -0.8493 0.1868 1.6250 0.8720 0.2470 -1.9803 1.3616 0.1520 -2.9515 -2.4010 -2.2353 -10.4686 5.4480 -3.6710 17.5476 1.8260 -1.4392 7.2460 -0.0000 -0.0000 0.0000 -92.4957 12.1779 21.8660 20.7955 -31.5889 -5.9425 -0.0000 -0.0000 8.0830 2.7839 -25.7725 -1.2112 -7.1250 0.0000 -0.0000 -16.2298 5.0279 15.3892 -0.0000 -0.0000 0.0000 89.6640 -18.8051 22.4838 -24.6216 35.8147 -8.0675 0.0000 0.0000 14.8478 -7.5941 -28.3063 3.6174 7.1250 -0.0000 -0.0000 25.0208 -56.6888 -7.4927
-0.7933 18.7078 6.0493 -2.1041 0.0298 2.1481 0.0000 0.0000 0.0000 -13.1500 -12.6631 -2.2268 1.4644 7.6479 21.6496 1.5563 5.9492 -26.3617 8.6750 -16.5939 -54.9591 0.0000 0.0000 0.0000 16.8840 0.0303 8.1524 0.0000 -0.0000 0.0000 -1.1830 -4.2444 -22.4797 -0.0336 1.1826 -3.2513 -0.8325 0.1888 1.6752 0.9137 0.2510 -1.9755 1.3948 0.1542 -2.9751 -2.3295 -2.2042 -10.3526 5.3947 -3.6280 17.4686 1.8014 -1.4217 7.1956 0.0000 0.0000 0.0000 -92.5334 12.2054 21.9294 20.8495 -31.6522 -5.9707 -0.0000 -0.0000 8.0233 2.8569 -25.7525 -1.2421 -7.1250 0.0000 -0.0000 -16.1870 5.0415 15.3406 0.0000 0.0000 0.0000 89.6461 -18.8298 22.4562 -24.5542 35.7449 -8.0281 0.0000 0.0000 14.9600 -8.7398 -28.1044 4.1421 7.1250 -0.0000 -0.0000 23.7407 -56.7408 -7.1080
